HIERARCHY
ROOT Hips
{
	OFFSET 0.00000 0.00000 0.00000
	CHANNELS 6 Xposition Yposition Zposition Zrotation Yrotation Xrotation 
	JOINT LHipJoint
	{
		OFFSET 0 0 0
		CHANNELS 3 Zrotation Yrotation Xrotation
		JOINT LeftUpLeg
		{
			OFFSET 1.75344 -1.53157 0.77399
			CHANNELS 3 Zrotation Yrotation Xrotation
			JOINT LeftLeg
			{
				OFFSET 2.25415 -6.19323 0.00000
				CHANNELS 3 Zrotation Yrotation Xrotation
				JOINT LeftFoot
				{
					OFFSET 2.30342 -6.32861 0.00000
					CHANNELS 3 Zrotation Yrotation Xrotation
					JOINT LeftToeBase
					{
						OFFSET 0.10958 -0.30108 1.49206
						CHANNELS 3 Zrotation Yrotation Xrotation
						End Site
						{
							OFFSET 0.00000 -0.00000 0.77783
						}
					}
				}
			}
		}
	}
	JOINT RHipJoint
	{
		OFFSET 0 0 0
		CHANNELS 3 Zrotation Yrotation Xrotation
		JOINT RightUpLeg
		{
			OFFSET -1.81912 -1.53156 0.77399
			CHANNELS 3 Zrotation Yrotation Xrotation
			JOINT RightLeg
			{
				OFFSET -2.22882 -6.12365 0.00000
				CHANNELS 3 Zrotation Yrotation Xrotation
				JOINT RightFoot
				{
					OFFSET -2.21943 -6.09785 0.00000
					CHANNELS 3 Zrotation Yrotation Xrotation
					JOINT RightToeBase
					{
						OFFSET -0.18931 -0.52012 1.59379
						CHANNELS 3 Zrotation Yrotation Xrotation
						End Site
						{
							OFFSET -0.00000 -0.00000 0.84686
						}
					}
				}
			}
		}
	}
	JOINT LowerBack
	{
		OFFSET 0 0 0
		CHANNELS 3 Zrotation Yrotation Xrotation
		JOINT Spine
		{
			OFFSET -0.00200 1.66634 -0.14248
			CHANNELS 3 Zrotation Yrotation Xrotation
			JOINT Spine1
			{
				OFFSET -0.00875 1.64542 0.09514
				CHANNELS 3 Zrotation Yrotation Xrotation
				JOINT Neck
				{
					OFFSET 0 0 0
					CHANNELS 3 Zrotation Yrotation Xrotation
					JOINT Neck1
					{
						OFFSET 0.02257 1.59605 0.00839
						CHANNELS 3 Zrotation Yrotation Xrotation
						JOINT Head
						{
							OFFSET -0.10214 1.57530 -0.23335
							CHANNELS 3 Zrotation Yrotation Xrotation
							End Site
							{
								OFFSET -0.03588 1.60717 -0.08062
							}
						}
					}
				}
				JOINT LeftShoulder
				{
					OFFSET 0 0 0
					CHANNELS 3 Zrotation Yrotation Xrotation
					JOINT LeftArm
					{
						OFFSET 2.54983 1.10186 0.40078
						CHANNELS 3 Zrotation Yrotation Xrotation
						JOINT LeftForeArm
						{
							OFFSET 4.28840 -0.00000 0.00000
							CHANNELS 3 Zrotation Yrotation Xrotation
							JOINT LeftHand
							{
								OFFSET 3.06552 -0.00000 -0.00000
								CHANNELS 3 Zrotation Yrotation Xrotation
								JOINT LeftFingerBase
								{
									OFFSET 0 0 0
									CHANNELS 3 Zrotation Yrotation Xrotation
									JOINT LeftHandIndex1
									{
										OFFSET 0.75304 -0.00000 0.00000
										CHANNELS 3 Zrotation Yrotation Xrotation
										End Site
										{
											OFFSET 0.60712 -0.00000 0.00000
										}
									}
								}
								JOINT LThumb
								{
									OFFSET 0 0 0
									CHANNELS 3 Zrotation Yrotation Xrotation
									End Site
									{
										OFFSET 0.61639 -0.00000 0.61639
									}
								}
							}
						}
					}
				}
				JOINT RightShoulder
				{
					OFFSET 0 0 0
					CHANNELS 3 Zrotation Yrotation Xrotation
					JOINT RightArm
					{
						OFFSET -2.60909 1.35448 0.21802
						CHANNELS 3 Zrotation Yrotation Xrotation
						JOINT RightForeArm
						{
							OFFSET -4.52172 -0.00000 -0.00000
							CHANNELS 3 Zrotation Yrotation Xrotation
							JOINT RightHand
							{
								OFFSET -2.89140 -0.00000 0.00000
								CHANNELS 3 Zrotation Yrotation Xrotation
								JOINT RightFingerBase
								{
									OFFSET 0 0 0
									CHANNELS 3 Zrotation Yrotation Xrotation
									JOINT RightHandIndex1
									{
										OFFSET -0.68054 -0.00000 0.00000
										CHANNELS 3 Zrotation Yrotation Xrotation
										End Site
										{
											OFFSET -0.54867 -0.00000 0.00000
										}
									}
								}
								JOINT RThumb
								{
									OFFSET 0 0 0
									CHANNELS 3 Zrotation Yrotation Xrotation
									End Site
									{
										OFFSET -0.55705 -0.00000 0.55705
									}
								}
							}
						}
					}
				}
			}
		}
	}
}
MOTION
Frames: 12
Frame Time: 0.0909091
0.00 0.00 0.00 0 0 0 0 0 0 -21 0 0 0 0 0 0 0 0 0 0 0 0 0 0 21 0 0 0 0 0 0 0 0 0 0 0 0 0 0 0 0 0 0 0 0 0 0 -16 0 0 21 0 0 11 0 0 0 -8 0 0 0 0 0 0 0 0 0 0 0 0 0 0 0 0 0 0 0 0 8 0 0 0 0 0 0 0 0 0 0 0 0 0 0 0 0 0
0.00 0.00 0.00 -179.3390 8.8110 181.7450 0.0000 0.0000 0.0000 -23.0594 -16.8407 -0.5750 1.4315 7.5651 21.4007 0.8006 13.2573 -26.3960 3.3848 -11.2933 -33.2757 0.0000 0.0000 0.0000 25.3543 17.3285 2.7017 -0.8529 -5.8897 16.4648 0.4093 -17.8720 -21.3479 -0.1720 2.6715 -7.3655 0.7382 1.4110 10.0910 0.4794 2.0715 -3.7793 -0.2843 0.9839 -9.7107 -8.8413 -2.4024 -6.0632 9.5548 -2.7462 1.0020 4.2293 -1.1817 1.5461 -0.0000 -0.0000 0.0000 -58.9727 9.6269 10.6662 16.1361 -25.7048 -3.7048 -0.0000 -0.0000 22.1651 -2.0947 -42.7300 1.4217 -7.1250 0.0000 -0.0000 -19.1143 -10.7427 23.5595 -0.0000 -0.0000 0.0000 60.4574 -11.7424 32.0146 -30.3852 41.2213 -11.6626 0.0000 0.0000 15.4573 -10.3106 -55.1940 8.4957 7.1250 -0.0000 -0.0000 75.8292 -75.5819 -60.9826
0.00 0.00 0.00 -178.9500 8.4831 189.0710 0.0000 0.0000 0.0000 -20.0449 -6.1303 -22.3499 4.0335 12.2049 36.4606 2.1800 2.2720 -28.7957 3.7185 -11.7761 -34.9445 0.0000 0.0000 0.0000 22.9541 14.2343 -14.0720 -2.4834 -9.8076 28.3558 -0.8450 -11.3451 -24.9171 -0.3451 3.7746 -10.4434 1.2107 -0.2658 16.0876 0.4412 -0.0455 -3.2012 -0.1875 -0.0889 -12.6345 -6.7891 -0.4114 -8.3513 7.4122 0.1371 -0.8959 3.6517 0.2930 1.1915 -0.0000 -0.0000 0.0000 -16.1980 31.9045 -28.6819 19.8148 -30.4186 -5.4373 -0.0000 -0.0000 8.8720 -10.1631 -21.6963 3.7915 -7.1250 0.0000 -0.0000 -24.0042 9.3150 21.8731 -0.0000 -0.0000 0.0000 10.0538 -34.9401 -1.2216 -19.6914 30.2688 -5.3749 0.0000 0.0000 16.9513 7.4075 -59.8101 -6.4118 7.1250 -0.0000 -0.0000 94.4166 -69.7932 -73.1852
0.00 0.00 0.00 -178.8740 5.8990 191.9990 0.0000 0.0000 0.0000 -22.7298 0.2001 -39.8927 8.4345 16.4297 54.1131 2.7239 1.6342 -31.8471 0.2826 -3.4191 -9.4478 0.0000 0.0000 0.0000 22.3543 11.6440 -29.0832 -6.4269 -14.8297 46.6720 -2.3402 -7.5806 -32.3736 -0.0903 1.9377 -5.3337 0.4691 -0.6715 19.4236 0.7495 -0.6533 -2.4871 0.7754 -0.2857 -13.7836 -5.2120 -0.2740 -9.3684 5.8042 0.6393 -4.5967 2.7860 0.6369 0.1268 -0.0000 0.0000 0.0000 -19.5259 36.7770 -30.5907 21.6510 -32.5803 -6.3969 -0.0000 -0.0000 5.8370 10.0683 -21.9325 -3.7943 -7.1250 0.0000 -0.0000 -11.7924 8.1161 10.2345 -0.0000 0.0000 0.0000 9.9426 -43.0268 -0.0521 -18.5424 28.8461 -4.8081 0.0000 0.0000 25.6316 -1.3656 -62.3757 1.2100 7.1250 -0.0000 -0.0000 83.5070 72.5074 101.4314
0.00 0.00 0.00 -179.0860 0.7497 198.9420 0.0000 0.0000 0.0000 -19.2827 -7.2689 -53.1048 12.4587 18.5779 67.4354 3.9383 -2.2938 -37.1222 1.7405 -8.3032 -23.6388 0.0000 0.0000 0.0000 21.3743 11.4312 -46.5913 -11.7116 -18.2661 65.0717 -3.6612 -8.1732 -39.5831 -0.0066 0.5260 -1.4453 -0.2637 -0.6175 18.5558 1.0328 -0.7296 -2.6276 1.5225 -0.2547 -13.4195 -4.5932 -1.9297 -11.8961 6.0493 -0.4819 -10.3230 2.7238 0.4557 -1.2304 -0.0000 0.0000 0.0000 -44.1511 32.3605 -35.1310 23.1240 -34.2241 -7.2079 -0.0000 -0.0000 3.0240 15.4201 -25.7276 -6.8277 -7.1250 0.0000 -0.0000 -8.6572 3.6810 8.1791 -0.0000 0.0000 0.0000 36.4997 -43.5182 -7.9658 -17.1052 26.9962 -4.1350 0.0000 0.0000 32.1636 -14.3089 -64.3009 12.9437 7.1250 -0.0000 -0.0000 99.2870 76.0331 113.7617
0.00 0.00 0.00 -179.7630 -15.6364 200.8630 0.0000 0.0000 0.0000 -14.5317 -16.4309 -56.6387 13.2120 18.8574 69.7828 3.2206 -7.3161 -32.6074 2.6367 -10.0823 -29.2435 0.0000 0.0000 0.0000 25.3303 4.1428 -51.7603 -12.9913 -18.7790 69.0984 -3.7194 -12.7381 -42.3284 -0.0403 -1.2963 3.5643 -0.0223 1.5104 21.3538 0.8650 2.1400 -3.4630 0.2710 1.0077 -16.1443 -7.6735 -5.7495 -11.6976 7.9047 -8.1160 -15.1973 3.8406 -4.5900 -2.3205 -0.0000 -0.0000 0.0000 -85.7991 21.1277 11.6285 21.4410 -32.3395 -6.2842 -0.0000 -0.0000 17.7375 5.8325 -40.0510 -3.7606 -7.1250 0.0000 -0.0000 -15.0813 -9.0062 17.8366 -0.0000 -0.0000 0.0000 80.3566 -3.9143 40.7184 -23.6082 34.7472 -7.4821 0.0000 0.0000 19.2461 -23.5397 -69.4221 22.1876 7.1250 -0.0000 -0.0000 124.5706 74.7454 138.3588
0.00 0.00 0.00 -179.0450 -30.5586 196.9510 0.0000 0.0000 0.0000 -14.1441 -16.0672 -44.7405 8.4264 16.4241 54.0846 0.7810 -17.9166 -18.9000 0.1299 -2.3231 -6.3996 0.0000 0.0000 0.0000 32.2946 -9.4426 -41.4559 -7.5787 -15.8004 51.0304 -2.0534 -14.1299 -35.1738 -0.0038 0.3963 -1.0889 1.9242 4.2105 18.3395 1.1158 6.2461 -3.6746 -1.7147 2.7438 -14.4176 -5.4668 -5.7736 -12.9231 1.0673 -7.9549 -10.1605 0.9785 -4.2130 -0.8338 0.0000 0.0000 0.0000 -82.7000 29.2218 39.5469 34.8779 -44.7248 -14.7274 -0.0000 -0.0000 21.5201 1.0185 -35.2818 -0.5883 -7.1250 0.0000 -0.0000 -17.2910 -3.9222 19.3087 0.0000 0.0000 0.0000 79.2782 16.8694 66.0300 -74.7676 59.1049 -46.8480 0.0000 0.0000 10.7321 -12.5273 -61.3878 11.0375 7.1250 -0.0000 -0.0000 86.8194 76.0725 101.0576
0.00 0.00 0.00 -180.0100 -43.1515 194.9430 0.0000 0.0000 0.0000 -16.1562 -15.9799 -34.5157 4.6810 13.0153 39.4256 -1.0069 -19.2249 -1.5548 0.1940 2.8366 7.8242 0.0000 0.0000 0.0000 33.9892 -16.9489 -32.7322 -4.1649 -12.3766 37.0777 0.1926 -18.5134 -24.5389 -0.2234 3.0423 -8.3964 2.3417 4.5108 15.7798 1.1895 6.6941 -4.3255 -1.7978 2.9592 -13.5870 -2.2449 -2.5685 -12.7030 -2.5336 -3.7624 -7.0759 -0.5427 -2.0968 -0.1368 -0.0000 -0.0000 0.0000 -78.0425 31.7381 42.8631 37.3528 -46.4210 -16.4951 -0.0000 -0.0000 19.6849 7.1522 -32.8119 -3.8899 -7.1250 0.0000 -0.0000 -13.8867 -2.1920 14.8440 -0.0000 -0.0000 0.0000 76.3236 16.4269 67.6296 -102.6850 59.3832 -70.9628 0.0000 0.0000 9.4889 -8.0647 -60.7732 7.0491 7.1250 -0.0000 -0.0000 97.0591 -74.6407 -81.5080
0.00 0.00 0.00 -182.0400 -53.3330 194.2120 0.0000 0.0000 0.0000 -17.9020 -16.6498 -24.5282 1.9046 8.6644 24.7509 0.5440 -6.8135 18.0645 4.2096 12.4342 37.2860 0.0000 0.0000 0.0000 31.9379 -14.0365 -21.6029 -2.1322 -9.1362 26.2223 2.6490 -27.8198 -16.6226 -0.1942 2.8381 -7.8282 2.9077 4.9230 14.0685 0.9358 7.2655 -4.3701 -2.3639 3.2194 -12.4797 -0.8488 0.3391 -12.9617 -5.2431 0.1960 -4.4458 -1.5029 -0.1541 0.7859 -0.0000 0.0000 0.0000 -74.4530 30.4314 45.9588 34.8680 -44.7177 -14.7204 -0.0000 -0.0000 19.0495 12.8613 -29.7608 -6.4659 -7.1250 0.0000 -0.0000 -10.4648 0.0302 10.6383 -0.0000 0.0000 0.0000 73.2145 12.4961 69.2160 -109.8629 58.4555 -77.1126 0.0000 0.0000 11.7808 6.7412 -58.1482 -5.7335 7.1250 -0.0000 -0.0000 89.7669 -69.9598 -68.3590
0.00 0.00 0.00 -184.8310 -59.9924 195.4740 0.0000 0.0000 0.0000 -17.6436 -24.0168 -17.2134 0.8686 5.9423 16.6172 0.0718 15.0800 11.3659 9.2003 16.9349 56.7802 0.0000 0.0000 0.0000 29.6438 -6.8402 -13.0407 -1.2524 -7.0949 19.9969 4.4391 -35.1930 -23.9048 -1.5749 -7.9181 22.4655 2.7539 5.0603 12.8104 0.4386 7.3284 -4.6287 -2.7161 3.2656 -11.9653 2.7322 3.0694 -13.2710 -8.9576 3.6555 -1.8666 -3.2335 1.4334 1.9886 -0.0000 -0.0000 0.0000 -72.9175 28.5132 46.2623 31.2149 -41.9122 -12.2131 -0.0000 -0.0000 17.3673 11.3433 -27.7722 -5.3401 -7.1250 0.0000 -0.0000 -11.2215 2.2047 10.9969 -0.0000 -0.0000 0.0000 73.6510 7.9953 72.8926 -108.6809 58.6394 -76.1042 0.0000 0.0000 10.6778 -4.2237 -61.5746 3.7160 7.1250 -0.0000 -0.0000 82.2452 73.3550 99.1275
0.00 0.00 0.00 -186.8620 -63.2772 196.8080 0.0000 0.0000 0.0000 -17.9555 -30.6497 -12.9465 0.6596 5.1944 14.4639 -1.0988 18.5777 -2.8351 10.1103 17.4714 59.8563 0.0000 0.0000 0.0000 28.5892 -1.6023 -8.8624 -1.0178 -6.4183 18.0032 2.2320 -33.2264 -36.1753 -5.8827 -14.3137 44.5093 2.5805 5.1571 12.0829 0.2329 7.3835 -4.7636 -2.7846 3.3100 -11.6721 3.6666 4.4515 -14.1959 -10.1195 5.6507 0.7647 -3.3053 2.3111 2.9282 0.0000 -0.0000 0.0000 -72.6151 27.2971 46.2277 29.0340 -40.0508 -10.7826 -0.0000 -0.0000 16.6842 9.5807 -26.6066 -4.3231 -7.1250 0.0000 -0.0000 -12.2121 3.5680 11.7019 0.0000 -0.0000 0.0000 74.1946 5.6433 74.4411 -106.6030 58.9324 -74.3271 0.0000 0.0000 10.7694 -5.5928 -62.8786 4.9811 7.1250 -0.0000 -0.0000 87.2931 73.8416 104.0033
0.00 0.00 0.00 -284.9920 -83.2136 293.4240 0.0000 0.0000 0.0000 -24.0713 -25.1090 -8.7569 1.1448 6.7943 19.1074 -2.4070 26.2509 -8.5330 6.9697 15.3063 48.7596 0.0000 0.0000 0.0000 26.9486 16.8026 -0.9836 -0.8952 -6.0304 16.8727 1.3815 -27.6259 -30.6149 -9.0251 -16.8238 56.1768 2.5972 4.5826 8.0325 -1.1856 6.3449 -6.4385 -3.8049 2.7632 -11.0084 12.8566 14.4870 -10.4932 -13.9423 19.5326 9.2023 -4.2751 9.0370 7.1810 0.0000 0.0000 0.0000 -77.5855 12.3860 24.2498 12.6276 -20.7391 -2.3197 -0.0000 -0.0000 47.6125 -2.2837 -25.9706 1.0005 -7.1250 0.0000 -0.0000 -19.1741 5.1546 18.4629 0.0000 0.0000 0.0000 80.7774 -9.0721 71.5747 -82.4685 59.7846 -53.4822 0.0000 0.0000 15.6131 2.8090 -62.8322 -2.4995 7.1250 -0.0000 -0.0000 83.2775 71.2630 102.5751
